<svg xmlns="http://www.w3.org/2000/svg" height="auto" style="background-color:#000" viewBox="0 0 1280 1280"><defs/><g clip-path="url(#clip0)"><path fill="#010E18" d="M-668.3 895.3l622-622 622 622-622 622-622-622zM354 355l826-826 826 826-826 826-826-826z"/><path fill="#010E18" d="M722 242l48-48 48 48-48 48-48-48z"/><path fill="#04253E" d="M783 630l24-24 24 24-24 24-24-24zm284-190.2h4v-4h-4v4zm-72-55.5h4v-4h-4v4zm0 59.5h4v-4h-4v4zm0-31.8h4v-4h-4v4zm0 51.6h4v-4h-4v4zm36-39.6h4v-4h-4v4zm72 0h4v-4h-4v4zm36-23.9h4v-4h-4v4zm-72 99.2h4v-4h-4v4zm-36-15.9h4v-4h-4v4zm0 154.6h4v-3.9h-4v4zm72-154.6h4v-4h-4v4zm36 8h4v-4h-4v4zm-72-31.8h4v-4h-4v4zm-36-15.8h4v-4h-4v4zm72 0h4v-4h-4v4zm36-23.8h4v-4h-4v4zm-72 99.1h4v-4h-4v4zm-36 15.9h4v-4h-4v4zm0 138.8h4v-4h-4v4zm0 35.7h4v-4h-4v4zm0 55.5h4v-39.7h-4V765zm72-238h4v-4h-4v4zm0 51.6h4v-4h-4v4zm-36-99.1h4v-4h-4v4zm-36-15.9h4v-4h-4v4zm0 146.7h4v-4h-4v4zm72-146.7h4v-4h-4v4zm36-7.9h4v-4h-4v4zm-72 211.1h4V536h-4v130.8zm-36-92.2h4v-23.8h-4v23.8zm72 151.7h4V595.5h-4v130.8z"/><path fill="#04253E" fill-rule="evenodd" d="M1069 217l-74 74 74 74 74-74-74-74zm0 6l-68 68 68 68 68-68-68-68z" clip-rule="evenodd"/><path fill="#04253E" d="M184 613.8h4v-16h-4v16zM112 550h4v-4h-4v4zm36 63.8h4V578h-4v36zm72-31.9h4v-4h-4v4zm36-23.9h4v-4h-4v4zm-72 139.6h4v-4h-4v4zm-36 99.7h4v-4h-4v4zm72-155.6h4v-4h-4v4zm36 8h4v-4h-4v4zm-144 27.9h4v-37.9h-4v38zm36 16h4v-4h-4v4zm0 175.4h4v-3.9h-4v4zm0 56h4v-40h-4v40zm72-239.4h4v-4h-4v4zm-72 83.8h4v-12h-4v12zm108-155.6h4v-4h-4v4zM184 974h4V806.3h-4V974z"/><path fill="#04253E" d="M112 677.6h4v-30.9h-4v31zM220 886h4V754.4h-4V886zM118 478l68-68 68 68-68 68-68-68zm547 457h4v-12h-4v12zm56 16h4v-32h-4v32zm-28 99h4V930h-4v120zm-28-103h4v-4h-4v4zm56 24h4v-4h-4v4zm-28 96h4v-4h-4v4zm-28-100h4v-4h-4v4zm56 28h4v-4h-4v4zm-28 96h4v-4h-4v4zm28-80h4v-4h-4v4z"/><path fill="#04253E" fill-rule="evenodd" d="M659 867l36-36 36 36-36 36-36-36zm36-32l-32 32 32 32 32-32-32-32z" clip-rule="evenodd"/><path fill="#010E18" fill-rule="evenodd" d="M998 1077l40-40 40 40-40 40-40-40zm40-36l-36 36 36 36 36-36-36-36z" clip-rule="evenodd"/><path fill="#010E18" d="M371 415h4v-12h-4v12zm56 16h4v-32h-4v32zm-28 99h4V410h-4v120zm-28-103h4v-4h-4v4zm56 24h4v-4h-4v4zm-28 96h4v-4h-4v4zm-28-100h4v-4h-4v4zm56 28h4v-4h-4v4zm-28 96h4v-4h-4v4zm28-80h4v-4h-4v4z"/><path fill="#010E18" fill-rule="evenodd" d="M365 347l36-36 36 36-36 36-36-36zm36-32l-32 32 32 32 32-32-32-32z" clip-rule="evenodd"/></g></svg>