<svg width="512" height="512" viewBox="0 0 512 512" fill="none" xmlns="http://www.w3.org/2000/svg">
<g clip-path="url(#clip0)">
<rect width="512" height="512" fill="#0066FF"/>
<path d="M380 338L778 -61H380V338Z" fill="#0064FA"/>
<path d="M132 174L-266 573H132V174Z" fill="#0064FA"/>
<path d="M156 239.346V192.916H166.745V239.346H156Z" fill="white"/>
<path d="M212.331 239.346V211.553L202.241 231.76H196.476L186.386 211.553V239.346H175.642V192.916H187.304L199.358 217.177L211.479 192.916H223.075V239.346H212.331Z" fill="white"/>
<path d="M244.653 192.916H254.349L271.318 239.346H260.311L256.708 228.948H242.229L238.691 239.346H227.684L244.653 192.916ZM254.939 221.559L249.501 205.144L243.932 221.559H254.939Z" fill="white"/>
<path d="M295.095 213.123H313.636V237.319C311.19 238.147 308.634 238.801 305.97 239.281C303.35 239.76 300.358 240 296.995 240C290.006 240 284.634 237.951 280.878 233.853C277.122 229.755 275.243 223.782 275.243 215.935C275.243 211.052 276.182 206.823 278.061 203.248C279.982 199.673 282.756 196.905 286.381 194.943C290.006 192.981 294.439 192 299.681 192C302.17 192 304.616 192.262 307.018 192.785C309.421 193.308 311.605 194.005 313.57 194.877L310.294 202.79C308.853 202.049 307.215 201.439 305.381 200.959C303.546 200.48 301.624 200.24 299.615 200.24C296.733 200.24 294.221 200.894 292.081 202.202C289.984 203.51 288.347 205.362 287.167 207.76C286.032 210.114 285.464 212.905 285.464 216.131C285.464 219.183 285.879 221.886 286.709 224.24C287.538 226.594 288.849 228.447 290.64 229.798C292.43 231.106 294.767 231.76 297.65 231.76C299.047 231.76 300.227 231.695 301.188 231.564C302.192 231.433 303.109 231.281 303.939 231.106V221.362H295.095V213.123Z" fill="white"/>
<path d="M356 229.929V239.346H323.308V192.916H355.41V202.332H334.052V211.357H352.397V220.054H334.052V229.929H356Z" fill="white"/>
<path d="M238.991 312.256V320H213.263V312.256H222.095V282.688C221.753 283.2 221.177 283.776 220.367 284.416C219.599 285.013 218.703 285.611 217.679 286.208C216.697 286.763 215.673 287.232 214.607 287.616C213.583 288 212.644 288.192 211.791 288.192V280.256C212.943 280.256 214.116 279.957 215.311 279.36C216.505 278.72 217.593 278.037 218.575 277.312C219.599 276.544 220.431 275.84 221.071 275.2C221.711 274.56 222.052 274.197 222.095 274.112H230.863V312.256H238.991Z" fill="white"/>
<path d="M252.51 296.064V286.848H259.486V296.064H252.51ZM252.51 320V310.784H259.486V320H252.51Z" fill="white"/>
<path d="M301.538 312.256V320H275.81V312.256H284.642V282.688C284.301 283.2 283.725 283.776 282.914 284.416C282.146 285.013 281.25 285.611 280.226 286.208C279.245 286.763 278.221 287.232 277.154 287.616C276.13 288 275.192 288.192 274.338 288.192V280.256C275.49 280.256 276.664 279.957 277.858 279.36C279.053 278.72 280.141 278.037 281.122 277.312C282.146 276.544 282.978 275.84 283.618 275.2C284.258 274.56 284.6 274.197 284.642 274.112H293.41V312.256H301.538Z" fill="white"/>
</g>
<defs>
<clipPath id="clip0">
<rect width="512" height="512" fill="white"/>
</clipPath>
</defs>
</svg>
